<svg width="32.000000" height="32.000000" viewBox="0 0 32 32" fill="none" xmlns="http://www.w3.org/2000/svg" xmlns:xlink="http://www.w3.org/1999/xlink">
	<desc>
			Created with Pixso.
	</desc>
	<defs/>
	<path id="Vector (Stroke)" d="M4 16C4 15.44 4.44 15 5 15L27 15C27.55 15 28 15.44 28 16C28 16.55 27.55 17 27 17L5 17C4.44 17 4 16.55 4 16Z" fill="#FFFFFF" fill-opacity="1.000000" fill-rule="evenodd"/>
	<path id="Vector (Stroke)" d="M14.7 6.29C15.09 6.68 15.09 7.31 14.7 7.7L6.41 16L14.7 24.29C15.09 24.68 15.09 25.31 14.7 25.7C14.31 26.09 13.68 26.09 13.29 25.7L4.29 16.7C3.9 16.31 3.9 15.68 4.29 15.29L13.29 6.29C13.68 5.9 14.31 5.9 14.7 6.29Z" fill="#FFFFFF" fill-opacity="1.000000" fill-rule="evenodd"/>
</svg>
