<svg width="32.000000" height="32.000000" viewBox="0 0 32 32" fill="none" xmlns="http://www.w3.org/2000/svg" xmlns:xlink="http://www.w3.org/1999/xlink">
	<desc>
			Created with Pixso.
	</desc>
	<defs/>
	<path id="Vector (Stroke)" d="M4 16C4 15.44 4.44 15 5 15L27 15C27.55 15 28 15.44 28 16C28 16.55 27.55 17 27 17L5 17C4.44 17 4 16.55 4 16Z" fill="#FFFFFF" fill-opacity="1.000000" fill-rule="evenodd"/>
	<path id="Vector (Stroke)" d="M17.29 6.29C17.68 5.9 18.31 5.9 18.7 6.29L27.7 15.29C28.09 15.68 28.09 16.31 27.7 16.7L18.7 25.7C18.31 26.09 17.68 26.09 17.29 25.7C16.9 25.31 16.9 24.68 17.29 24.29L25.58 16L17.29 7.7C16.9 7.31 16.9 6.68 17.29 6.29Z" fill="#FFFFFF" fill-opacity="1.000000" fill-rule="evenodd"/>
</svg>
