<svg width="24.000000" height="24.000000" viewBox="0 0 24 24" fill="none" xmlns="http://www.w3.org/2000/svg" xmlns:xlink="http://www.w3.org/1999/xlink">
	<desc>
			Created with Pixso.
	</desc>
	<defs/>
	<path id="Vector (Stroke)" d="M3 12C3 11.58 3.33 11.25 3.75 11.25L20.25 11.25C20.66 11.25 21 11.58 21 12C21 12.41 20.66 12.75 20.25 12.75L3.75 12.75C3.33 12.75 3 12.41 3 12Z" fill="#FFFFFF" fill-opacity="1.000000" fill-rule="evenodd"/>
	<path id="Vector (Stroke)" d="M3 6C3 5.58 3.33 5.25 3.75 5.25L15 5.25C15.41 5.25 15.75 5.58 15.75 6C15.75 6.41 15.41 6.75 15 6.75L3.75 6.75C3.33 6.75 3 6.41 3 6Z" fill="#FFFFFF" fill-opacity="1.000000" fill-rule="evenodd"/>
	<path id="Vector (Stroke)" d="M3 18C3 17.58 3.33 17.25 3.75 17.25L15 17.25C15.41 17.25 15.75 17.58 15.75 18C15.75 18.41 15.41 18.75 15 18.75L3.75 18.75C3.33 18.75 3 18.41 3 18Z" fill="#FFFFFF" fill-opacity="1.000000" fill-rule="evenodd"/>
</svg>
