<svg width="32.000000" height="32.000000" viewBox="0 0 32 32" fill="none" xmlns="http://www.w3.org/2000/svg" xmlns:xlink="http://www.w3.org/1999/xlink">
	<desc>
			Created with Pixso.
	</desc>
	<defs/>
	<path id="Vector (Stroke)" d="M10 5C10 4.44 10.44 4 11 4L27 4C27.55 4 28 4.44 28 5L28 21C28 21.55 27.55 22 27 22L21 22C20.44 22 20 21.55 20 21C20 20.44 20.44 20 21 20L26 20L26 6L12 6L12 11C12 11.55 11.55 12 11 12C10.44 12 10 11.55 10 11L10 5Z" fill="#FFFFFF" fill-opacity="1.000000" fill-rule="evenodd"/>
	<path id="Vector (Stroke)" d="M4 11C4 10.44 4.44 10 5 10L21 10C21.55 10 22 10.44 22 11L22 27C22 27.55 21.55 28 21 28L5 28C4.44 28 4 27.55 4 27L4 11ZM6 12L6 26L20 26L20 12L6 12Z" fill="#FFFFFF" fill-opacity="1.000000" fill-rule="evenodd"/>
</svg>
