<svg width="32.000000" height="32.000000" viewBox="0 0 32 32" fill="none" xmlns="http://www.w3.org/2000/svg" xmlns:xlink="http://www.w3.org/1999/xlink">
	<desc>
			Created with Pixso.
	</desc>
	<defs/>
	<path id="Vector" d="M12 19.5C12.82 19.5 13.5 18.82 13.5 18C13.5 17.17 12.82 16.5 12 16.5C11.17 16.5 10.5 17.17 10.5 18C10.5 18.82 11.17 19.5 12 19.5Z" fill="#FFFFFF" fill-opacity="1.000000" fill-rule="nonzero"/>
	<path id="Vector" d="M20 19.5C20.82 19.5 21.5 18.82 21.5 18C21.5 17.17 20.82 16.5 20 16.5C19.17 16.5 18.5 17.17 18.5 18C18.5 18.82 19.17 19.5 20 19.5Z" fill="#FFFFFF" fill-opacity="1.000000" fill-rule="nonzero"/>
	<path id="Vector (Stroke)" d="M15.99 10C13.82 9.98 11.66 10.3 9.59 10.95C9.07 11.11 8.51 10.82 8.34 10.29C8.18 9.77 8.47 9.21 9 9.04C11.26 8.33 13.62 7.98 16 8C18.37 7.98 20.73 8.33 22.99 9.04C23.52 9.21 23.81 9.77 23.65 10.29C23.48 10.82 22.92 11.11 22.4 10.95C20.33 10.3 18.17 9.98 16 10L15.99 10Z" fill="#FFFFFF" fill-opacity="1.000000" fill-rule="evenodd"/>
	<path id="Vector (Stroke)" d="M8.34 21.7C8.51 21.17 9.07 20.88 9.59 21.04C11.66 21.69 13.82 22.01 15.99 22L16 22C18.17 22.01 20.33 21.69 22.4 21.04C22.92 20.88 23.48 21.17 23.65 21.7C23.81 22.22 23.52 22.78 22.99 22.95C20.73 23.66 18.37 24.01 16 24C13.62 24.01 11.26 23.66 9 22.95C8.47 22.78 8.18 22.22 8.34 21.7Z" fill="#FFFFFF" fill-opacity="1.000000" fill-rule="evenodd"/>
	<path id="Vector (Stroke)" d="M20.21 4.81C20.65 4.56 21.15 4.49 21.63 4.59C22.95 4.88 24.24 5.28 25.49 5.79C25.77 5.9 26.02 6.07 26.23 6.29C26.43 6.52 26.58 6.78 26.67 7.08L30.9 21.22C31.01 21.59 31.02 21.98 30.91 22.35C30.8 22.72 30.6 23.05 30.31 23.31L30.3 23.31C28.23 25.11 25.43 26.47 22.25 27.25C21.81 27.37 21.34 27.32 20.93 27.13C20.52 26.94 20.18 26.61 19.99 26.2L18.48 23.21C18.23 22.71 18.43 22.11 18.92 21.87C19.41 21.62 20.01 21.81 20.26 22.31L21.78 25.31L21.78 25.31C24.71 24.59 27.21 23.35 28.99 21.8L29.64 22.56L28.98 21.81C28.99 21.81 28.99 21.8 28.99 21.8C28.99 21.8 28.99 21.8 28.99 21.79L24.75 7.65C24.75 7.65 24.74 7.65 24.74 7.65C23.6 7.18 22.42 6.81 21.21 6.55L21.21 6.55C21.2 6.55 21.2 6.55 21.2 6.55C21.19 6.55 21.19 6.55 21.19 6.55L20.21 9.53C20.03 10.06 19.47 10.34 18.94 10.17C18.42 10 18.13 9.43 18.31 8.91L19.3 5.91C19.46 5.44 19.78 5.05 20.21 4.81Z" fill="#FFFFFF" fill-opacity="1.000000" fill-rule="evenodd"/>
	<path id="Vector (Stroke)" d="M10.79 6.55C10.79 6.55 10.79 6.55 10.78 6.55L10.78 6.55C9.57 6.81 8.39 7.18 7.25 7.65C7.25 7.65 7.24 7.65 7.24 7.65L3 21.79C3 21.8 3 21.8 3 21.8C3 21.8 3 21.81 3.01 21.81C4.79 23.35 7.28 24.59 10.21 25.31L10.21 25.31L11.73 22.31C11.98 21.81 12.58 21.62 13.07 21.87C13.56 22.11 13.76 22.71 13.51 23.21L12 26.2C11.81 26.61 11.47 26.94 11.06 27.13C10.65 27.32 10.18 27.37 9.74 27.25C6.56 26.47 3.76 25.11 1.69 23.31L1.68 23.31C1.39 23.05 1.19 22.72 1.08 22.35C0.97 21.98 0.98 21.59 1.09 21.22L5.32 7.08C5.41 6.78 5.56 6.52 5.77 6.29C5.97 6.07 6.22 5.9 6.5 5.79C7.75 5.28 9.04 4.88 10.36 4.59C10.84 4.49 11.35 4.56 11.77 4.81C12.21 5.05 12.53 5.44 12.69 5.91L12.69 5.92L13.68 8.91C13.86 9.43 13.57 10 13.05 10.17C12.52 10.34 11.96 10.06 11.78 9.53L10.8 6.55C10.8 6.55 10.8 6.55 10.79 6.55Z" fill="#FFFFFF" fill-opacity="1.000000" fill-rule="evenodd"/>
	<path id="Vector" d="M12 19.5C12.82 19.5 13.5 18.82 13.5 18C13.5 17.17 12.82 16.5 12 16.5C11.17 16.5 10.5 17.17 10.5 18C10.5 18.82 11.17 19.5 12 19.5Z" fill="#FFFFFF" fill-opacity="1.000000" fill-rule="nonzero"/>
	<path id="Vector" d="M20 19.5C20.82 19.5 21.5 18.82 21.5 18C21.5 17.17 20.82 16.5 20 16.5C19.17 16.5 18.5 17.17 18.5 18C18.5 18.82 19.17 19.5 20 19.5Z" fill="#FFFFFF" fill-opacity="1.000000" fill-rule="nonzero"/>
	<path id="Vector (Stroke)" d="M15.99 10C13.82 9.98 11.66 10.3 9.59 10.95C9.07 11.11 8.51 10.82 8.34 10.29C8.18 9.77 8.47 9.21 9 9.04C11.26 8.33 13.62 7.98 16 8C18.37 7.98 20.73 8.33 22.99 9.04C23.52 9.21 23.81 9.77 23.65 10.29C23.48 10.82 22.92 11.11 22.4 10.95C20.33 10.3 18.17 9.98 16 10L15.99 10Z" fill="#FFFFFF" fill-opacity="1.000000" fill-rule="evenodd"/>
	<path id="Vector (Stroke)" d="M8.34 21.7C8.51 21.17 9.07 20.88 9.59 21.04C11.66 21.69 13.82 22.01 15.99 22L16 22C18.17 22.01 20.33 21.69 22.4 21.04C22.92 20.88 23.48 21.17 23.65 21.7C23.81 22.22 23.52 22.78 22.99 22.95C20.73 23.66 18.37 24.01 16 24C13.62 24.01 11.26 23.66 9 22.95C8.47 22.78 8.18 22.22 8.34 21.7Z" fill="#FFFFFF" fill-opacity="1.000000" fill-rule="evenodd"/>
	<path id="Vector (Stroke)" d="M20.21 4.81C20.65 4.56 21.15 4.49 21.63 4.59C22.95 4.88 24.24 5.28 25.49 5.79C25.77 5.9 26.02 6.07 26.23 6.29C26.43 6.52 26.58 6.78 26.67 7.08L30.9 21.22C31.01 21.59 31.02 21.98 30.91 22.35C30.8 22.72 30.6 23.05 30.31 23.31L30.3 23.31C28.23 25.11 25.43 26.47 22.25 27.25C21.81 27.37 21.34 27.32 20.93 27.13C20.52 26.94 20.18 26.61 19.99 26.2L18.48 23.21C18.23 22.71 18.43 22.11 18.92 21.87C19.41 21.62 20.01 21.81 20.26 22.31L21.78 25.31L21.78 25.31C24.71 24.59 27.21 23.35 28.99 21.8L29.64 22.56L28.98 21.81C28.99 21.81 28.99 21.8 28.99 21.8C28.99 21.8 28.99 21.8 28.99 21.79L24.75 7.65C24.75 7.65 24.74 7.65 24.74 7.65C23.6 7.18 22.42 6.81 21.21 6.55L21.21 6.55C21.2 6.55 21.2 6.55 21.2 6.55C21.19 6.55 21.19 6.55 21.19 6.55L20.21 9.53C20.03 10.06 19.47 10.34 18.94 10.17C18.42 10 18.13 9.43 18.31 8.91L19.3 5.91C19.46 5.44 19.78 5.05 20.21 4.81Z" fill="#FFFFFF" fill-opacity="1.000000" fill-rule="evenodd"/>
	<path id="Vector (Stroke)" d="M10.79 6.55C10.79 6.55 10.79 6.55 10.78 6.55L10.78 6.55C9.57 6.81 8.39 7.18 7.25 7.65C7.25 7.65 7.24 7.65 7.24 7.65L3 21.79C3 21.8 3 21.8 3 21.8C3 21.8 3 21.81 3.01 21.81C4.79 23.35 7.28 24.59 10.21 25.31L10.21 25.31L11.73 22.31C11.98 21.81 12.58 21.62 13.07 21.87C13.56 22.11 13.76 22.71 13.51 23.21L12 26.2C11.81 26.61 11.47 26.94 11.06 27.13C10.65 27.32 10.18 27.37 9.74 27.25C6.56 26.47 3.76 25.11 1.69 23.31L1.68 23.31C1.39 23.05 1.19 22.72 1.08 22.35C0.97 21.98 0.98 21.59 1.09 21.22L5.32 7.08C5.41 6.78 5.56 6.52 5.77 6.29C5.97 6.07 6.22 5.9 6.5 5.79C7.75 5.28 9.04 4.88 10.36 4.59C10.84 4.49 11.35 4.56 11.77 4.81C12.21 5.05 12.53 5.44 12.69 5.91L12.69 5.92L13.68 8.91C13.86 9.43 13.57 10 13.05 10.17C12.52 10.34 11.96 10.06 11.78 9.53L10.8 6.55C10.8 6.55 10.8 6.55 10.79 6.55Z" fill="#FFFFFF" fill-opacity="1.000000" fill-rule="evenodd"/>
</svg>
