<svg width="32.000000" height="32.000000" viewBox="0 0 32 32" fill="none" xmlns="http://www.w3.org/2000/svg" xmlns:xlink="http://www.w3.org/1999/xlink">
	<desc>
			Created with Pixso.
	</desc>
	<defs/>
	<path id="Vector (Stroke)" d="M3 7C3 6.44 3.44 6 4 6L28 6C28.55 6 29 6.44 29 7L29 24C29 24.53 28.78 25.03 28.41 25.41C28.03 25.78 27.53 26 27 26L5 26C4.46 26 3.96 25.78 3.58 25.41C3.21 25.03 3 24.53 3 24L3 7ZM5 8L5 24L27 24L27 8L5 8Z" fill="#FFFFFF" fill-opacity="1.000000" fill-rule="evenodd"/>
	<path id="Vector (Stroke)" d="M3.26 6.32C3.63 5.91 4.26 5.88 4.67 6.26L16 16.64L27.32 6.26C27.73 5.88 28.36 5.91 28.73 6.32C29.11 6.73 29.08 7.36 28.67 7.73L16.67 18.73C16.29 19.08 15.7 19.08 15.32 18.73L3.32 7.73C2.91 7.36 2.88 6.73 3.26 6.32Z" fill="#FFFFFF" fill-opacity="1.000000" fill-rule="evenodd"/>
</svg>
