<svg width="32.000000" height="32.000000" viewBox="0 0 32 32" fill="none" xmlns="http://www.w3.org/2000/svg" xmlns:xlink="http://www.w3.org/1999/xlink">
	<desc>
			Created with Pixso.
	</desc>
	<defs/>
	<path id="Vector (Stroke)" d="M4.54 10.79C6.92 8.4 10.66 6 16 6C21.33 6 25.07 8.4 27.45 10.79C28.64 11.98 29.5 13.16 30.06 14.06C30.34 14.5 30.55 14.88 30.69 15.14C30.76 15.28 30.81 15.38 30.85 15.46C30.87 15.5 30.88 15.53 30.89 15.55L30.9 15.58L30.91 15.58L30.91 15.59L30.91 15.59C30.91 15.59 30.91 15.59 30 16C30.91 16.4 30.91 16.4 30.91 16.4L30.91 16.4L30.91 16.41L30.9 16.41L30.89 16.44C30.88 16.46 30.87 16.49 30.85 16.53C30.81 16.61 30.76 16.71 30.69 16.85C30.55 17.11 30.34 17.49 30.06 17.93C29.5 18.83 28.64 20.01 27.45 21.2C25.07 23.59 21.33 26 16 26C10.66 26 6.92 23.59 4.54 21.2C3.35 20.01 2.49 18.83 1.93 17.93C1.65 17.49 1.44 17.11 1.3 16.85C1.23 16.71 1.18 16.61 1.14 16.53C1.12 16.49 1.11 16.46 1.1 16.44L1.09 16.41L1.08 16.41L1.08 16.4L1.08 16.4C1.08 16.4 1.08 16.4 2 16C1.08 15.59 1.08 15.59 1.08 15.59L1.08 15.59L1.08 15.58L1.09 15.58L1.1 15.55C1.11 15.53 1.12 15.5 1.14 15.46C1.18 15.38 1.23 15.28 1.3 15.14C1.44 14.88 1.65 14.5 1.93 14.06C2.49 13.16 3.35 11.98 4.54 10.79ZM2 16L1.08 15.59C0.97 15.85 0.97 16.14 1.08 16.4L2 16ZM3.11 16C3.23 16.22 3.4 16.51 3.62 16.87C4.12 17.66 4.89 18.73 5.95 19.79C8.07 21.9 11.33 24 16 24C20.66 24 23.92 21.9 26.04 19.79C27.1 18.73 27.87 17.66 28.37 16.87C28.59 16.51 28.76 16.22 28.88 16C28.76 15.77 28.59 15.48 28.37 15.12C27.87 14.33 27.1 13.26 26.04 12.2C23.92 10.09 20.66 8 16 8C11.33 8 8.07 10.09 5.95 12.2C4.89 13.26 4.12 14.33 3.62 15.12C3.4 15.48 3.23 15.77 3.11 16ZM30 16L30.91 16.4C31.02 16.14 31.02 15.85 30.91 15.59L30 16Z" fill="#FFFFFF" fill-opacity="1.000000" fill-rule="evenodd"/>
	<path id="Vector (Stroke)" d="M16 12C13.79 12 12 13.79 12 16C12 18.2 13.79 20 16 20C18.2 20 20 18.2 20 16C20 13.79 18.2 12 16 12ZM10 16C10 12.68 12.68 10 16 10C19.31 10 22 12.68 22 16C22 19.31 19.31 22 16 22C12.68 22 10 19.31 10 16Z" fill="#FFFFFF" fill-opacity="1.000000" fill-rule="evenodd"/>
</svg>
