<svg width="32.000000" height="32.000000" viewBox="0 0 32 32" fill="none" xmlns="http://www.w3.org/2000/svg" xmlns:xlink="http://www.w3.org/1999/xlink">
	<desc>
			Created with Pixso.
	</desc>
	<defs/>
	<path id="Vector (Stroke)" d="M5.32 4.25C5.73 3.88 6.36 3.91 6.73 4.32L26.74 26.32C27.11 26.73 27.08 27.36 26.67 27.74C26.26 28.11 25.63 28.08 25.26 27.67L5.26 5.67C4.88 5.26 4.91 4.63 5.32 4.25Z" fill="#FFFFFF" fill-opacity="1.000000" fill-rule="evenodd"/>
	<path id="Vector (Stroke)" d="M13.37 11.62C13.74 12.03 13.71 12.66 13.31 13.04C12.71 13.58 12.29 14.29 12.1 15.08C11.92 15.86 11.97 16.68 12.26 17.44C12.56 18.19 13.07 18.84 13.73 19.29C14.4 19.75 15.19 20 16 20L16 20C16.99 20 17.95 19.63 18.68 18.96C19.09 18.58 19.72 18.61 20.09 19.02C20.47 19.43 20.44 20.06 20.03 20.43C18.93 21.44 17.49 22 15.99 22C14.78 21.99 13.6 21.63 12.6 20.94C11.6 20.26 10.84 19.29 10.4 18.16C9.96 17.03 9.88 15.79 10.16 14.61C10.43 13.44 11.06 12.37 11.96 11.55C12.37 11.18 13 11.21 13.37 11.62Z" fill="#FFFFFF" fill-opacity="1.000000" fill-rule="evenodd"/>
	<path id="Vector (Stroke)" d="M10.14 8.12C10.39 8.61 10.19 9.21 9.7 9.46C7.32 10.66 5.62 12.4 4.5 13.86C3.95 14.58 3.54 15.23 3.28 15.69C3.22 15.8 3.16 15.91 3.11 16C3.23 16.22 3.4 16.51 3.62 16.87C4.12 17.66 4.89 18.73 5.95 19.79C8.07 21.9 11.33 24 15.99 24L16 24C18.19 24.01 20.34 23.51 22.3 22.53C22.79 22.28 23.39 22.48 23.64 22.97C23.89 23.46 23.69 24.07 23.19 24.31C20.96 25.44 18.49 26.02 15.99 26C10.66 25.99 6.92 23.59 4.54 21.2C3.35 20.01 2.49 18.83 1.93 17.93C1.65 17.49 1.44 17.11 1.3 16.85C1.23 16.71 1.18 16.61 1.14 16.53C1.12 16.49 1.11 16.46 1.1 16.44L1.09 16.41L1.08 16.41L1.08 16.4L1.08 16.4C1.08 16.4 1.08 16.4 1.99 16C1.08 15.59 1.08 15.59 1.08 15.59L1.08 15.59L1.08 15.58L1.09 15.57C1.1 15.55 1.11 15.54 1.12 15.51C1.14 15.47 1.16 15.41 1.2 15.33C1.28 15.18 1.39 14.97 1.54 14.7C1.84 14.18 2.29 13.45 2.91 12.64C4.15 11.03 6.07 9.05 8.79 7.68C9.29 7.43 9.89 7.63 10.14 8.12ZM1.99 16L1.08 15.59C0.97 15.85 0.97 16.14 1.08 16.4L1.99 16Z" fill="#FFFFFF" fill-opacity="1.000000" fill-rule="evenodd"/>
	<path id="Vector (Stroke)" d="M13.24 6.22C14.15 6.07 15.07 5.99 16 6L16 7L16 6C16 6 16 6 16 6C21.33 6 25.07 8.4 27.45 10.79C28.64 11.98 29.5 13.16 30.06 14.06C30.34 14.5 30.55 14.88 30.69 15.14C30.76 15.28 30.81 15.38 30.85 15.46C30.87 15.5 30.88 15.53 30.89 15.55L30.9 15.58L30.91 15.58L30.91 15.59L30.91 15.59C30.91 15.59 30.91 15.59 30 16C29.08 15.59 29.08 15.59 29.08 15.59L29.07 15.61C29.07 15.62 29.06 15.65 29.04 15.68C29.01 15.75 28.95 15.85 28.88 15.99C28.88 15.99 28.88 15.99 28.88 16C28.76 15.77 28.59 15.48 28.37 15.12C27.87 14.33 27.1 13.26 26.04 12.2C23.92 10.09 20.66 8 16 8L15.99 8C15.18 7.99 14.37 8.06 13.57 8.19C13.03 8.29 12.51 7.92 12.42 7.37C12.33 6.83 12.7 6.31 13.24 6.22ZM30 16L30.91 16.4C31.02 16.14 31.02 15.85 30.91 15.59L30 16ZM28.88 16C28.73 16.26 28.52 16.65 28.22 17.1C27.61 18.03 26.69 19.24 25.4 20.39C24.99 20.76 24.96 21.39 25.32 21.8C25.69 22.21 26.33 22.25 26.74 21.88C28.18 20.59 29.22 19.23 29.89 18.2C30.23 17.68 30.48 17.24 30.65 16.92C30.73 16.77 30.79 16.64 30.84 16.55C30.86 16.51 30.88 16.47 30.89 16.45L30.9 16.42L30.91 16.41L30.91 16.4L30.91 16.4C30.91 16.4 30.91 16.4 30 16C29.08 16.4 29.08 16.4 29.08 16.4L29.08 16.39C29.07 16.38 29.06 16.36 29.05 16.33C29.02 16.27 28.98 16.18 28.92 16.07C28.9 16.05 28.89 16.02 28.88 16Z" fill="#FFFFFF" fill-opacity="1.000000" fill-rule="evenodd"/>
	<path id="Vector (Stroke)" d="M15.95 10.9C16.05 10.35 16.58 10 17.12 10.1C18.4 10.34 19.56 10.99 20.43 11.95C21.31 12.91 21.85 14.13 21.97 15.43C22.02 15.98 21.61 16.46 21.06 16.52C20.51 16.57 20.03 16.16 19.97 15.61C19.89 14.75 19.54 13.94 18.95 13.3C18.37 12.66 17.6 12.23 16.75 12.07C16.2 11.96 15.85 11.44 15.95 10.9Z" fill="#FFFFFF" fill-opacity="1.000000" fill-rule="evenodd"/>
</svg>
