<svg width="32.000000" height="32.000000" viewBox="0 0 32 32" fill="none" xmlns="http://www.w3.org/2000/svg" xmlns:xlink="http://www.w3.org/1999/xlink">
	<desc>
			Created with Pixso.
	</desc>
	<defs/>
	<path id="Vector (Stroke)" d="M16 5C9.92 5 5 9.92 5 16C5 22.07 9.92 27 16 27C22.07 27 27 22.07 27 16C27 9.92 22.07 5 16 5ZM3 16C3 8.82 8.82 3 16 3C23.17 3 29 8.82 29 16C29 23.17 23.17 29 16 29C8.82 29 3 23.17 3 16Z" fill="#FFFFFF" fill-opacity="1.000000" fill-rule="evenodd"/>
	<path id="Vector (Stroke)" d="M3.68 12C3.68 11.44 4.13 11 4.68 11L27.31 11C27.86 11 28.31 11.44 28.31 12C28.31 12.55 27.86 13 27.31 13L4.68 13C4.13 13 3.68 12.55 3.68 12Z" fill="#FFFFFF" fill-opacity="1.000000" fill-rule="evenodd"/>
	<path id="Vector (Stroke)" d="M3.68 20C3.68 19.44 4.13 19 4.68 19L27.31 19C27.86 19 28.31 19.44 28.31 20C28.31 20.55 27.86 21 27.31 21L4.68 21C4.13 21 3.68 20.55 3.68 20Z" fill="#FFFFFF" fill-opacity="1.000000" fill-rule="evenodd"/>
	<path id="Vector (Stroke)" d="M13.38 8.13C12.54 10.09 12 12.87 12 16C12 19.12 12.54 21.9 13.38 23.86C13.8 24.84 14.27 25.57 14.75 26.04C15.22 26.51 15.64 26.67 16 26.67C16.35 26.67 16.77 26.51 17.24 26.04C17.72 25.57 18.19 24.84 18.61 23.86C19.45 21.9 20 19.12 20 16C20 12.87 19.45 10.09 18.61 8.13C18.19 7.15 17.72 6.42 17.24 5.95C16.77 5.48 16.35 5.32 16 5.32C15.64 5.32 15.22 5.48 14.75 5.95C14.27 6.42 13.8 7.15 13.38 8.13ZM13.35 4.53C14.07 3.81 14.97 3.32 16 3.32C17.02 3.32 17.92 3.81 18.64 4.53C19.36 5.24 19.97 6.22 20.45 7.35C21.42 9.61 22 12.67 22 16C22 19.32 21.42 22.38 20.45 24.64C19.97 25.78 19.36 26.75 18.64 27.46C17.92 28.18 17.02 28.67 16 28.67C14.97 28.67 14.07 28.18 13.35 27.46C12.63 26.75 12.02 25.78 11.54 24.64C10.57 22.38 10 19.32 10 16C10 12.67 10.57 9.61 11.54 7.35C12.02 6.22 12.63 5.24 13.35 4.53Z" fill="#FFFFFF" fill-opacity="1.000000" fill-rule="evenodd"/>
</svg>
