<svg width="32.000000" height="32.000000" viewBox="0 0 32 32" fill="none" xmlns="http://www.w3.org/2000/svg" xmlns:xlink="http://www.w3.org/1999/xlink">
	<desc>
			Created with Pixso.
	</desc>
	<defs/>
	<path id="Vector (Stroke)" d="M16 12C13.79 12 12 13.79 12 16C12 18.2 13.79 20 16 20C18.2 20 20 18.2 20 16C20 13.79 18.2 12 16 12ZM10 16C10 12.68 12.68 10 16 10C19.31 10 22 12.68 22 16C22 19.31 19.31 22 16 22C12.68 22 10 19.31 10 16Z" fill="#FFFFFF" fill-opacity="1.000000" fill-rule="evenodd"/>
	<path id="Vector (Stroke)" d="M10.5 5.5C7.73 5.5 5.5 7.73 5.5 10.5L5.5 21.5C5.5 24.26 7.73 26.5 10.5 26.5L21.5 26.5C24.26 26.5 26.5 24.26 26.5 21.5L26.5 10.5C26.5 7.73 24.26 5.5 21.5 5.5L10.5 5.5ZM3.5 10.5C3.5 6.63 6.63 3.5 10.5 3.5L21.5 3.5C25.36 3.5 28.5 6.63 28.5 10.5L28.5 21.5C28.5 25.36 25.36 28.5 21.5 28.5L10.5 28.5C6.63 28.5 3.5 25.36 3.5 21.5L3.5 10.5Z" fill="#FFFFFF" fill-opacity="1.000000" fill-rule="evenodd"/>
	<path id="Vector" d="M22.5 11C23.32 11 24 10.32 24 9.5C24 8.67 23.32 8 22.5 8C21.67 8 21 8.67 21 9.5C21 10.32 21.67 11 22.5 11Z" fill="#FFFFFF" fill-opacity="1.000000" fill-rule="nonzero"/>
</svg>
