<svg width="32.000000" height="32.000000" viewBox="0 0 32 32" fill="none" xmlns="http://www.w3.org/2000/svg" xmlns:xlink="http://www.w3.org/1999/xlink">
	<desc>
			Created with Pixso.
	</desc>
	<defs/>
	<path id="Vector (Stroke)" d="M4 16C4 15.44 4.44 15 5 15L27 15C27.55 15 28 15.44 28 16C28 16.55 27.55 17 27 17L5 17C4.44 17 4 16.55 4 16Z" fill="#FFFFFF" fill-opacity="1.000000" fill-rule="evenodd"/>
	<path id="Vector (Stroke)" d="M4 8C4 7.44 4.44 7 5 7L20 7C20.55 7 21 7.44 21 8C21 8.55 20.55 9 20 9L5 9C4.44 9 4 8.55 4 8Z" fill="#FFFFFF" fill-opacity="1.000000" fill-rule="evenodd"/>
	<path id="Vector (Stroke)" d="M4 24C4 23.44 4.44 23 5 23L20 23C20.55 23 21 23.44 21 24C21 24.55 20.55 25 20 25L5 25C4.44 25 4 24.55 4 24Z" fill="#FFFFFF" fill-opacity="1.000000" fill-rule="evenodd"/>
</svg>
