<svg width="32.000000" height="32.000000" viewBox="0 0 32 32" fill="none" xmlns="http://www.w3.org/2000/svg" xmlns:xlink="http://www.w3.org/1999/xlink">
	<desc>
			Created with Pixso.
	</desc>
	<defs/>
	<path id="Vector (Stroke)" d="M16 16C15.17 16 14.5 16.67 14.5 17.5C14.5 18.32 15.17 19 16 19C16.82 19 17.5 18.32 17.5 17.5C17.5 16.67 16.82 16 16 16ZM12.5 17.5C12.5 15.56 14.06 14 16 14C17.93 14 19.5 15.56 19.5 17.5C19.5 19.43 17.93 21 16 21C14.06 21 12.5 19.43 12.5 17.5Z" fill="#FFFFFF" fill-opacity="1.000000" fill-rule="evenodd"/>
	<path id="Vector (Stroke)" d="M16 19C16.55 19 17 19.44 17 20L17 23C17 23.55 16.55 24 16 24C15.44 24 15 23.55 15 23L15 20C15 19.44 15.44 19 16 19Z" fill="#FFFFFF" fill-opacity="1.000000" fill-rule="evenodd"/>
	<path id="Vector (Stroke)" d="M4 12C4 10.89 4.89 10 6 10L26 10C27.1 10 28 10.89 28 12L28 26C28 27.1 27.1 28 26 28L6 28C4.89 28 4 27.1 4 26L4 12ZM26 12L6 12L6 26L26 26L26 12Z" fill="#FFFFFF" fill-opacity="1.000000" fill-rule="evenodd"/>
	<path id="Vector (Stroke)" d="M16 3C15.07 3 14.18 3.36 13.52 4.02C12.86 4.68 12.5 5.57 12.5 6.5L12.5 11C12.5 11.55 12.05 12 11.5 12C10.94 12 10.5 11.55 10.5 11L10.5 6.5C10.5 5.04 11.07 3.64 12.11 2.61C13.14 1.57 14.54 1 16 1C17.45 1 18.85 1.57 19.88 2.61C20.92 3.64 21.5 5.04 21.5 6.5L21.5 11C21.5 11.55 21.05 12 20.5 12C19.94 12 19.5 11.55 19.5 11L19.5 6.5C19.5 5.57 19.13 4.68 18.47 4.02C17.81 3.36 16.92 3 16 3Z" fill="#FFFFFF" fill-opacity="1.000000" fill-rule="evenodd"/>
</svg>
