<svg width="32.000000" height="32.000000" viewBox="0 0 32 32" fill="none" xmlns="http://www.w3.org/2000/svg" xmlns:xlink="http://www.w3.org/1999/xlink">
	<desc>
			Created with Pixso.
	</desc>
	<defs/>
	<path id="Vector (Stroke)" d="M14.5 5C9.25 5 5 9.25 5 14.5C5 19.74 9.25 24 14.5 24C19.74 24 24 19.74 24 14.5C24 9.25 19.74 5 14.5 5ZM3 14.5C3 8.14 8.14 3 14.5 3C20.85 3 26 8.14 26 14.5C26 20.85 20.85 26 14.5 26C8.14 26 3 20.85 3 14.5Z" fill="#FFFFFF" fill-opacity="1.000000" fill-rule="evenodd"/>
	<path id="Vector (Stroke)" d="M21.21 21.21C21.6 20.82 22.24 20.82 22.63 21.21L28.7 27.29C29.09 27.68 29.09 28.31 28.7 28.7C28.31 29.09 27.68 29.09 27.29 28.7L21.21 22.63C20.82 22.24 20.82 21.6 21.21 21.21Z" fill="#FFFFFF" fill-opacity="1.000000" fill-rule="evenodd"/>
</svg>
