<svg width="32.000000" height="32.000000" viewBox="0 0 32 32" fill="none" xmlns="http://www.w3.org/2000/svg" xmlns:xlink="http://www.w3.org/1999/xlink">
	<desc>
			Created with Pixso.
	</desc>
	<defs/>
	<path id="Vector (Stroke)" d="M4 16C4 15.44 4.44 15 5 15L27 15C27.55 15 28 15.44 28 16C28 16.55 27.55 17 27 17L5 17C4.44 17 4 16.55 4 16Z" fill="#FFFFFF" fill-opacity="1.000000" fill-rule="evenodd"/>
	<path id="Vector (Stroke)" d="M16 4C16.55 4 17 4.44 17 5L17 27C17 27.55 16.55 28 16 28C15.44 28 15 27.55 15 27L15 5C15 4.44 15.44 4 16 4Z" fill="#FFFFFF" fill-opacity="1.000000" fill-rule="evenodd"/>
</svg>
