<svg width="32.000000" height="32.000000" viewBox="0 0 32 32" fill="none" xmlns="http://www.w3.org/2000/svg" xmlns:xlink="http://www.w3.org/1999/xlink">
	<desc>
			Created with Pixso.
	</desc>
	<defs/>
	<path id="Vector (Stroke)" d="M9.87 19.91C10.04 20.44 9.76 21 9.24 21.18C7.54 21.75 6.64 23.17 6.16 24.62C5.97 25.2 5.85 25.75 5.78 26.21C6.24 26.14 6.8 26.02 7.37 25.83C8.82 25.35 10.24 24.45 10.81 22.75C10.99 22.23 11.55 21.95 12.08 22.12C12.6 22.3 12.88 22.87 12.71 23.39C11.85 25.93 9.74 27.15 8 27.73C7.13 28.02 6.31 28.16 5.71 28.23C5.41 28.27 5.16 28.29 4.98 28.3C4.89 28.3 4.82 28.3 4.77 28.31C4.75 28.31 4.73 28.31 4.71 28.31L4.69 28.31L4.69 28.31L4.68 28.31L4.68 28.31C4.68 28.31 4.68 28.31 4.68 27.31C3.68 27.31 3.68 27.31 3.68 27.31L3.68 27.31L3.68 27.3L3.68 27.3L3.68 27.28C3.68 27.26 3.68 27.24 3.68 27.22C3.69 27.17 3.69 27.1 3.69 27.01C3.7 26.83 3.72 26.58 3.76 26.28C3.83 25.68 3.97 24.86 4.26 23.99C4.84 22.25 6.06 20.14 8.6 19.29C9.12 19.11 9.69 19.39 9.87 19.91ZM4.68 27.31L3.68 27.31C3.68 27.86 4.13 28.31 4.68 28.31L4.68 27.31Z" fill="#FFFFFF" fill-opacity="1.000000" fill-rule="evenodd"/>
	<path id="Vector (Stroke)" d="M26.47 5.52C25.31 5.35 22.45 5.29 19.53 8.22L11.75 16L16 20.24L23.78 12.46C26.7 9.54 26.64 6.68 26.47 5.52ZM26.76 3.54C25.16 3.31 21.6 3.31 18.11 6.8L9.63 15.29C9.44 15.48 9.33 15.73 9.33 16C9.33 16.26 9.44 16.52 9.63 16.7L15.29 22.37C15.68 22.76 16.31 22.76 16.7 22.37L25.19 13.88C28.68 10.39 28.68 6.83 28.45 5.23C28.39 4.8 28.19 4.41 27.89 4.1C27.58 3.8 27.19 3.6 26.76 3.54Z" fill="#FFFFFF" fill-opacity="1.000000" fill-rule="evenodd"/>
	<path id="Vector (Stroke)" d="M23.07 13.58C23.62 13.58 24.07 14.03 24.07 14.58L24.07 22.66L24.07 22.67C24.06 23.2 23.85 23.7 23.47 24.07L19.44 28.12C19.18 28.37 18.86 28.55 18.51 28.64C18.16 28.73 17.79 28.72 17.44 28.61C17.1 28.51 16.79 28.31 16.54 28.04C16.3 27.78 16.14 27.45 16.06 27.09L15.01 21.85C14.91 21.31 15.26 20.79 15.8 20.68C16.34 20.57 16.87 20.92 16.98 21.46L18.03 26.7L22.07 22.64L22.07 14.58C22.07 14.03 22.52 13.58 23.07 13.58Z" fill="#FFFFFF" fill-opacity="1.000000" fill-rule="evenodd"/>
	<path id="Vector (Stroke)" d="M9.32 7.92L9.33 7.92L17.41 7.92C17.96 7.92 18.41 8.37 18.41 8.92C18.41 9.47 17.96 9.92 17.41 9.92L9.35 9.92L9.34 9.93L9.34 9.93L5.29 13.96L5.29 13.96L10.53 15.01C11.07 15.12 11.42 15.65 11.31 16.19C11.2 16.73 10.68 17.08 10.14 16.98L4.9 15.93C4.9 15.93 4.9 15.93 4.9 15.93C4.54 15.85 4.22 15.69 3.95 15.45C3.68 15.2 3.48 14.89 3.38 14.54C3.27 14.2 3.26 13.83 3.35 13.48C3.44 13.13 3.62 12.81 3.87 12.55L3.88 12.55L3.88 12.55L7.92 8.52C8.29 8.14 8.79 7.93 9.32 7.92Z" fill="#FFFFFF" fill-opacity="1.000000" fill-rule="evenodd"/>
</svg>
