<svg width="32.000000" height="32.000000" viewBox="0 0 32 32" fill="none" xmlns="http://www.w3.org/2000/svg" xmlns:xlink="http://www.w3.org/1999/xlink">
	<desc>
			Created with Pixso.
	</desc>
	<defs/>
	<path id="Vector (Stroke)" d="M13 28C13 27.44 13.44 27 14 27L18 27C18.55 27 19 27.44 19 28C19 28.55 18.55 29 18 29L14 29C13.44 29 13 28.55 13 28Z" fill="#FFFFFF" fill-opacity="1.000000" fill-rule="evenodd"/>
	<path id="Vector (Stroke)" d="M14.74 1.69C15.09 1.4 15.54 1.24 16 1.24C16.46 1.24 16.9 1.4 17.26 1.7C18.5 2.71 21.18 5.22 22.67 9.08C24.18 13 24.41 18.22 20.87 24.49C20.69 24.8 20.36 25 20 25L12 25C11.64 25 11.31 24.8 11.13 24.49C7.51 18.22 7.73 13 9.26 9.07C10.76 5.21 13.48 2.7 14.74 1.69ZM16 3.25L15.99 3.25C14.87 4.15 12.45 6.39 11.12 9.8C9.86 13.05 9.56 17.47 12.58 23L19.4 23C22.36 17.48 22.06 13.06 20.81 9.8C19.5 6.4 17.11 4.16 16 3.25Z" fill="#FFFFFF" fill-opacity="1.000000" fill-rule="evenodd"/>
	<path id="Vector (Stroke)" d="M9.87 13.15C10.3 13.51 10.35 14.14 10 14.56L6.08 19.25C6.08 19.25 6.08 19.25 6.08 19.25L7.62 26.21L11.37 23.21C11.8 22.87 12.43 22.94 12.78 23.37C13.12 23.8 13.05 24.43 12.62 24.78L8.87 27.78C8.6 27.99 8.29 28.13 7.96 28.19C7.62 28.24 7.28 28.21 6.96 28.1C6.64 27.99 6.35 27.8 6.13 27.54C5.9 27.29 5.74 26.98 5.67 26.65L5.67 26.65L4.13 19.7C4.06 19.4 4.06 19.09 4.13 18.79C4.2 18.49 4.34 18.21 4.54 17.97L8.46 13.28C8.82 12.86 9.45 12.8 9.87 13.15Z" fill="#FFFFFF" fill-opacity="1.000000" fill-rule="evenodd"/>
	<path id="Vector (Stroke)" d="M22.04 13.05C22.47 12.7 23.1 12.76 23.45 13.18L27.45 17.98C27.65 18.21 27.79 18.49 27.86 18.79C27.93 19.09 27.93 19.4 27.86 19.7L26.32 26.65L26.32 26.65C26.25 26.98 26.09 27.29 25.86 27.54C25.64 27.8 25.35 27.99 25.03 28.1C24.71 28.21 24.37 28.24 24.03 28.19C23.7 28.13 23.39 27.99 23.12 27.78L19.37 24.78C18.94 24.43 18.87 23.8 19.21 23.37C19.56 22.94 20.19 22.87 20.62 23.21L24.37 26.21L25.91 19.25C25.91 19.25 25.91 19.25 25.91 19.25L21.91 14.46C21.56 14.04 21.62 13.41 22.04 13.05Z" fill="#FFFFFF" fill-opacity="1.000000" fill-rule="evenodd"/>
	<path id="Vector" d="M16 13.5C16.82 13.5 17.5 12.82 17.5 12C17.5 11.17 16.82 10.5 16 10.5C15.17 10.5 14.5 11.17 14.5 12C14.5 12.82 15.17 13.5 16 13.5Z" fill="#FFFFFF" fill-opacity="1.000000" fill-rule="nonzero"/>
</svg>
