<svg width="32.000000" height="32.000000" viewBox="0 0 32 32" fill="none" xmlns="http://www.w3.org/2000/svg" xmlns:xlink="http://www.w3.org/1999/xlink">
	<desc>
			Created with Pixso.
	</desc>
	<defs/>
	<path id="Vector (Stroke)" d="M6 12.45C6.55 12.45 7 12.89 7 13.45L7 26L25 26L25 13.45C25 12.89 25.44 12.45 26 12.45C26.55 12.45 27 12.89 27 13.45L27 26C27 26.53 26.78 27.03 26.41 27.41C26.03 27.78 25.53 28 25 28L7 28C6.46 28 5.96 27.78 5.58 27.41C5.21 27.03 5 26.53 5 26L5 13.45C5 12.89 5.44 12.45 6 12.45Z" fill="#FFFFFF" fill-opacity="1.000000" fill-rule="evenodd"/>
	<path id="Vector (Stroke)" d="M3 5C3 4.44 3.44 4 4 4L28 4C28.55 4 29 4.44 29 5C29 5.55 28.55 6 28 6L4 6C3.44 6 3 5.55 3 5Z" fill="#FFFFFF" fill-opacity="1.000000" fill-rule="evenodd"/>
	<path id="Vector (Stroke)" d="M4 7C4.55 7 5 7.44 5 8L5 10C5 10.79 5.31 11.55 5.87 12.12C6.44 12.68 7.2 13 8 13C8.79 13 9.55 12.68 10.12 12.12C10.68 11.55 11 10.79 11 10L11 8C11 7.44 11.44 7 12 7C12.55 7 13 7.44 13 8L13 10C13 11.32 12.47 12.59 11.53 13.53C10.59 14.47 9.32 15 8 15C6.67 15 5.4 14.47 4.46 13.53C3.52 12.59 3 11.32 3 10L3 8C3 7.44 3.44 7 4 7Z" fill="#FFFFFF" fill-opacity="1.000000" fill-rule="evenodd"/>
	<path id="Vector (Stroke)" d="M12 7C12.55 7 13 7.44 13 8L13 10C13 10.79 13.31 11.55 13.87 12.12C14.44 12.68 15.2 13 16 13C16.79 13 17.55 12.68 18.12 12.12C18.68 11.55 19 10.79 19 10L19 8C19 7.44 19.44 7 20 7C20.55 7 21 7.44 21 8L21 10C21 11.32 20.47 12.59 19.53 13.53C18.59 14.47 17.32 15 16 15C14.67 15 13.4 14.47 12.46 13.53C11.52 12.59 11 11.32 11 10L11 8C11 7.44 11.44 7 12 7Z" fill="#FFFFFF" fill-opacity="1.000000" fill-rule="evenodd"/>
	<path id="Vector (Stroke)" d="M20 7C20.55 7 21 7.44 21 8L21 10C21 10.79 21.31 11.55 21.87 12.12C22.44 12.68 23.2 13 24 13C24.79 13 25.55 12.68 26.12 12.12C26.68 11.55 27 10.79 27 10L27 8C27 7.44 27.44 7 28 7C28.55 7 29 7.44 29 8L29 10C29 11.32 28.47 12.59 27.53 13.53C26.59 14.47 25.32 15 24 15C22.67 15 21.4 14.47 20.46 13.53C19.52 12.59 19 11.32 19 10L19 8C19 7.44 19.44 7 20 7Z" fill="#FFFFFF" fill-opacity="1.000000" fill-rule="evenodd"/>
</svg>
