<svg width="32.000000" height="32.000000" viewBox="0 0 32 32" fill="none" xmlns="http://www.w3.org/2000/svg" xmlns:xlink="http://www.w3.org/1999/xlink">
	<desc>
			Created with Pixso.
	</desc>
	<defs/>
	<path id="Vector (Stroke)" d="M29.7 6.29C30.09 6.68 30.09 7.31 29.7 7.7L17.7 19.7C17.31 20.09 16.68 20.09 16.29 19.7L12 15.41L3.7 23.7C3.31 24.09 2.68 24.09 2.29 23.7C1.9 23.31 1.9 22.68 2.29 22.29L11.29 13.29C11.68 12.9 12.31 12.9 12.7 13.29L17 17.58L28.29 6.29C28.68 5.9 29.31 5.9 29.7 6.29Z" fill="#FFFFFF" fill-opacity="1.000000" fill-rule="evenodd"/>
	<path id="Vector (Stroke)" d="M20 7C20 6.44 20.44 6 21 6L29 6C29.55 6 30 6.44 30 7L30 15C30 15.55 29.55 16 29 16C28.44 16 28 15.55 28 15L28 8L21 8C20.44 8 20 7.55 20 7Z" fill="#FFFFFF" fill-opacity="1.000000" fill-rule="evenodd"/>
</svg>
