<svg width="32.000000" height="32.000000" viewBox="0 0 32 32" fill="none" xmlns="http://www.w3.org/2000/svg" xmlns:xlink="http://www.w3.org/1999/xlink">
	<desc>
			Created with Pixso.
	</desc>
	<defs/>
	<path id="Vector" d="M21.06 6C22.02 6.01 22.96 6.3 23.76 6.83C24.57 7.36 25.2 8.11 25.58 9L29.99 9L25.96 13.03C25.7 17.09 23.9 20.89 20.94 23.67C17.97 26.45 14.06 28 9.99 28C5.99 28 4.99 26.5 4.99 26.5C4.99 26.5 8.99 25 10.99 22C10.99 22 2.99 18 4.99 7C4.99 7 9.99 12 15.99 13L15.99 11C15.99 8.25 18.31 5.96 21.06 6Z" stroke="#FFFFFF" stroke-opacity="1.000000" stroke-width="2.000000" stroke-linejoin="round"/>
</svg>
