<svg width="32.000000" height="32.000000" viewBox="0 0 32 32" fill="none" xmlns="http://www.w3.org/2000/svg" xmlns:xlink="http://www.w3.org/1999/xlink">
	<desc>
			Created with Pixso.
	</desc>
	<defs/>
	<path id="Vector (Stroke)" d="M16 5C9.92 5 5 9.92 5 16C5 22.07 9.92 27 16 27C22.07 27 27 22.07 27 16C27 9.92 22.07 5 16 5ZM3 16C3 8.82 8.82 3 16 3C23.17 3 29 8.82 29 16C29 23.17 23.17 29 16 29C8.82 29 3 23.17 3 16Z" fill="#FFFFFF" fill-opacity="1.000000" fill-rule="evenodd"/>
	<path id="Vector (Stroke)" d="M16 11C13.79 11 12 12.79 12 15C12 17.2 13.79 19 16 19C18.2 19 20 17.2 20 15C20 12.79 18.2 11 16 11ZM10 15C10 11.68 12.68 9 16 9C19.31 9 22 11.68 22 15C22 18.31 19.31 21 16 21C12.68 21 10 18.31 10 15Z" fill="#FFFFFF" fill-opacity="1.000000" fill-rule="evenodd"/>
	<path id="Vector (Stroke)" d="M16 20.99C14.52 20.99 13.07 21.4 11.81 22.18C10.55 22.95 9.53 24.06 8.86 25.37C8.61 25.87 8.01 26.06 7.52 25.81C7.02 25.56 6.83 24.96 7.08 24.47C7.91 22.82 9.19 21.44 10.76 20.47C12.34 19.51 14.15 18.99 16 18.99C17.84 18.99 19.65 19.51 21.23 20.47C22.8 21.44 24.08 22.82 24.91 24.47C25.16 24.96 24.96 25.56 24.47 25.81C23.98 26.06 23.38 25.87 23.13 25.37C22.46 24.06 21.44 22.95 20.18 22.18C18.92 21.4 17.47 20.99 16 20.99Z" fill="#FFFFFF" fill-opacity="1.000000" fill-rule="evenodd"/>
</svg>
