<svg width="32.000000" height="32.000000" viewBox="0 0 32 32" fill="none" xmlns="http://www.w3.org/2000/svg" xmlns:xlink="http://www.w3.org/1999/xlink">
	<desc>
			Created with Pixso.
	</desc>
	<defs/>
	<path id="Vector (Stroke)" d="M16 5C12.13 5 9 8.13 9 12C9 15.86 12.13 19 16 19C19.86 19 23 15.86 23 12C23 8.13 19.86 5 16 5ZM7 12C7 7.02 11.02 3 16 3C20.97 3 25 7.02 25 12C25 16.97 20.97 21 16 21C11.02 21 7 16.97 7 12Z" fill="#FFFFFF" fill-opacity="1.000000" fill-rule="evenodd"/>
	<path id="Vector (Stroke)" d="M16 20.99C13.71 20.99 11.47 21.59 9.49 22.74C7.52 23.88 5.88 25.52 4.74 27.5C4.46 27.97 3.85 28.14 3.37 27.86C2.89 27.58 2.73 26.97 3 26.5C4.32 24.21 6.21 22.32 8.49 21C10.77 19.69 13.36 18.99 16 18.99C18.63 18.99 21.22 19.69 23.5 21C25.78 22.32 27.67 24.21 28.99 26.5C29.26 26.97 29.1 27.58 28.62 27.86C28.14 28.14 27.53 27.97 27.25 27.5C26.11 25.52 24.47 23.88 22.5 22.74C20.52 21.59 18.28 20.99 16 20.99Z" fill="#FFFFFF" fill-opacity="1.000000" fill-rule="evenodd"/>
</svg>
