<svg width="32.000000" height="32.000000" viewBox="0 0 32 32" fill="none" xmlns="http://www.w3.org/2000/svg" xmlns:xlink="http://www.w3.org/1999/xlink">
	<desc>
			Created with Pixso.
	</desc>
	<defs/>
	<path id="Vector (Stroke)" d="M7 7C6.73 7 6.48 7.1 6.29 7.29C6.1 7.48 6 7.73 6 8C6 8.26 6.1 8.51 6.29 8.7C6.48 8.89 6.73 9 7 9L27 9C27.53 9 28.03 9.21 28.41 9.58C28.78 9.96 29 10.46 29 11L29 25C29 25.53 28.78 26.03 28.41 26.41C28.03 26.78 27.53 27 27 27L7 27C6.2 27 5.44 26.68 4.87 26.12C4.31 25.55 4 24.79 4 24L4 8C4 7.2 4.31 6.44 4.87 5.87C5.44 5.31 6.2 5 7 5L24 5C24.55 5 25 5.44 25 6C25 6.55 24.55 7 24 7L7 7ZM6 10.82L6 24C6 24.26 6.1 24.51 6.29 24.7C6.48 24.89 6.73 25 7 25L27 25L27 11L7 11C6.65 11 6.31 10.94 6 10.82Z" fill="#FFFFFF" fill-opacity="1.000000" fill-rule="evenodd"/>
	<path id="Vector" d="M22.5 19.5C23.32 19.5 24 18.82 24 18C24 17.17 23.32 16.5 22.5 16.5C21.67 16.5 21 17.17 21 18C21 18.82 21.67 19.5 22.5 19.5Z" fill="#FFFFFF" fill-opacity="1.000000" fill-rule="nonzero"/>
</svg>
