<svg width="32.000000" height="32.000000" viewBox="0 0 32 32" fill="none" xmlns="http://www.w3.org/2000/svg" xmlns:xlink="http://www.w3.org/1999/xlink">
	<desc>
			Created with Pixso.
	</desc>
	<defs/>
	<path id="Vector (Stroke)" d="M13.52 11.11C13.85 10.94 14.24 10.96 14.55 11.16L20.55 15.16C20.83 15.35 21 15.66 21 16C21 16.33 20.83 16.64 20.55 16.83L14.55 20.83C14.24 21.03 13.85 21.05 13.52 20.88C13.2 20.7 13 20.36 13 20L13 12C13 11.63 13.2 11.29 13.52 11.11ZM15 13.86L15 18.13L18.19 16L15 13.86Z" fill="#FFFFFF" fill-opacity="1.000000" fill-rule="evenodd"/>
	<path id="Vector (Stroke)" d="M15.99 5.04L15.98 5.04L15.91 5.04C15.86 5.04 15.78 5.05 15.68 5.05C15.47 5.05 15.18 5.05 14.82 5.06C14.09 5.09 13.07 5.13 11.92 5.23C9.64 5.42 6.74 5.82 4.51 6.67L4.5 6.68C4.06 6.85 3.67 7.13 3.36 7.48C3.05 7.84 2.82 8.26 2.7 8.72L2.7 8.72C2.39 9.94 2 12.2 2 16C2 19.79 2.39 22.05 2.7 23.27L2.7 23.27C2.82 23.73 3.05 24.15 3.36 24.5C3.67 24.86 4.06 25.14 4.5 25.31L4.51 25.32C6.74 26.17 9.64 26.57 11.92 26.76C13.07 26.86 14.09 26.9 14.82 26.93C15.18 26.94 15.47 26.94 15.68 26.94C15.78 26.94 15.86 26.95 15.91 26.95L15.98 26.95L15.99 26.95L16 26.95L16.01 26.95L16.08 26.95C16.13 26.95 16.21 26.94 16.31 26.94C16.52 26.94 16.81 26.94 17.17 26.93C17.9 26.9 18.92 26.86 20.07 26.76C22.35 26.57 25.25 26.17 27.48 25.32L27.49 25.31C27.93 25.14 28.32 24.86 28.63 24.5C28.94 24.15 29.17 23.73 29.29 23.27L29.29 23.27C29.6 22.05 30 19.79 30 16C30 12.2 29.6 9.94 29.29 8.72L29.29 8.72C29.17 8.26 28.94 7.84 28.63 7.48C28.32 7.13 27.93 6.85 27.49 6.68L27.48 6.67C25.25 5.82 22.35 5.42 20.07 5.23C18.92 5.13 17.9 5.09 17.17 5.06C16.81 5.05 16.52 5.05 16.31 5.05C16.21 5.05 16.13 5.04 16.08 5.04L16.01 5.04L16 5.04L15.99 5.04ZM15.99 24.95L16 24.95L16 24.95L16.02 24.95L16.07 24.95C16.12 24.95 16.19 24.94 16.29 24.94C16.48 24.94 16.76 24.94 17.11 24.93C17.82 24.91 18.8 24.86 19.9 24.77C22.14 24.58 24.8 24.2 26.75 23.45C26.9 23.39 27.03 23.3 27.13 23.18C27.24 23.06 27.31 22.92 27.35 22.77C27.62 21.74 28 19.65 28 16C28 12.34 27.62 10.25 27.35 9.22C27.31 9.07 27.24 8.93 27.13 8.81C27.03 8.69 26.9 8.6 26.75 8.54C24.8 7.79 22.14 7.41 19.9 7.22C18.8 7.13 17.82 7.08 17.11 7.06C16.76 7.05 16.48 7.05 16.29 7.05C16.19 7.05 16.12 7.04 16.07 7.04L16.02 7.04L16 7.04L16 7.04L15.99 7.04L15.99 7.04L15.97 7.04L15.92 7.04C15.87 7.04 15.8 7.05 15.7 7.05C15.51 7.05 15.23 7.05 14.88 7.06C14.17 7.08 13.19 7.13 12.09 7.22C9.85 7.41 7.19 7.79 5.24 8.54C5.09 8.6 4.96 8.69 4.86 8.81C4.75 8.93 4.68 9.07 4.64 9.22C4.37 10.25 4 12.34 4 16C4 19.65 4.37 21.74 4.64 22.77C4.68 22.92 4.75 23.06 4.86 23.18C4.96 23.3 5.09 23.39 5.24 23.45C7.19 24.2 9.85 24.58 12.09 24.77C13.19 24.86 14.17 24.91 14.88 24.93C15.23 24.94 15.51 24.94 15.7 24.94C15.8 24.94 15.87 24.95 15.92 24.95L15.97 24.95L15.99 24.95L15.99 24.95Z" fill="#FFFFFF" fill-opacity="1.000000" fill-rule="evenodd"/>
</svg>
