<svg width="126.500000" height="100.000000" viewBox="0 0 126.5 100" fill="none" xmlns="http://www.w3.org/2000/svg" xmlns:xlink="http://www.w3.org/1999/xlink">
	<desc>
			Created with Pixso.
	</desc>
	<defs/>
	<path id="Vector" d="M50 87.5C29.28 87.5 12.5 70.71 12.5 50C12.5 29.28 29.28 12.5 50 12.5C70.71 12.5 87.5 29.28 87.5 50C87.5 70.71 70.71 87.5 50 87.5Z" stroke="#FFFFFF" stroke-opacity="1.000000" stroke-width="3.000000" stroke-linejoin="round"/>
	<path id="Vector" d="M23.43 23.51C30.44 30.54 34.38 40.07 34.37 50C34.38 59.93 30.44 69.45 23.43 76.48" stroke="#FFFFFF" stroke-opacity="1.000000" stroke-width="3.000000" stroke-linejoin="round" stroke-linecap="round"/>
	<path id="Vector" d="M76.56 23.51C69.55 30.55 65.62 40.07 65.62 50C65.62 59.92 69.55 69.45 76.56 76.48" stroke="#FFFFFF" stroke-opacity="1.000000" stroke-width="3.000000" stroke-linejoin="round" stroke-linecap="round"/>
	<path id="Vector" d="M12.5 50L87.5 50" stroke="#FFFFFF" stroke-opacity="1.000000" stroke-width="3.000000" stroke-linejoin="round" stroke-linecap="round"/>
	<path id="Vector" d="M50 12.5L125 12.5" stroke="#FFFFFF" stroke-opacity="1.000000" stroke-width="3.000000" stroke-linejoin="round" stroke-linecap="round"/>
</svg>
