<svg width="100.000000" height="100.000000" viewBox="0 0 100 100" fill="none" xmlns="http://www.w3.org/2000/svg" xmlns:xlink="http://www.w3.org/1999/xlink">
	<desc>
			Created with Pixso.
	</desc>
	<defs/>
	<path id="Vector" d="M18.75 81.25C17.09 81.25 15.5 80.59 14.33 79.41C13.15 78.24 12.5 76.65 12.5 75L12.5 31.25C12.5 29.59 13.15 28 14.33 26.83C15.5 25.65 17.09 25 18.75 25L31.25 25L37.5 15.62L62.5 15.62L68.75 25L81.25 25C82.9 25 84.49 25.65 85.66 26.83C86.84 28 87.5 29.59 87.5 31.25L87.5 75C87.5 76.65 86.84 78.24 85.66 79.41C84.49 80.59 82.9 81.25 81.25 81.25L18.75 81.25Z" stroke="#FFFFFF" stroke-opacity="1.000000" stroke-width="3.000000" stroke-linejoin="round"/>
	<path id="Vector" d="M50 65.62C42.23 65.62 35.93 59.32 35.93 51.56C35.93 43.79 42.23 37.5 50 37.5C57.76 37.5 64.06 43.79 64.06 51.56C64.06 59.32 57.76 65.62 50 65.62Z" stroke="#FFFFFF" stroke-opacity="1.000000" stroke-width="3.000000" stroke-linejoin="round"/>
</svg>
