<svg width="100.000000" height="100.000000" viewBox="0 0 100 100" fill="none" xmlns="http://www.w3.org/2000/svg" xmlns:xlink="http://www.w3.org/1999/xlink">
	<desc>
			Created with Pixso.
	</desc>
	<defs/>
	<path id="Vector" d="M70.31 78.12C64.27 78.12 59.37 73.22 59.37 67.18C59.37 61.14 64.27 56.25 70.31 56.25C76.35 56.25 81.25 61.14 81.25 67.18C81.25 73.22 76.35 78.12 70.31 78.12Z" stroke="#FFFFFF" stroke-opacity="1.000000" stroke-width="3.000000" stroke-linejoin="round"/>
	<path id="Vector" d="M20.31 90.62C14.27 90.62 9.37 85.72 9.37 79.68C9.37 73.64 14.27 68.75 20.31 68.75C26.35 68.75 31.25 73.64 31.25 79.68C31.25 85.72 26.35 90.62 20.31 90.62Z" stroke="#FFFFFF" stroke-opacity="1.000000" stroke-width="3.000000" stroke-linejoin="round"/>
	<path id="Vector" d="M81.25 31.25L31.25 43.75" stroke="#FFFFFF" stroke-opacity="1.000000" stroke-width="3.000000" stroke-linejoin="round" stroke-linecap="round"/>
	<path id="Vector" d="M31.25 79.68L31.25 25L81.25 12.5L81.25 67.18" stroke="#FFFFFF" stroke-opacity="1.000000" stroke-width="3.000000" stroke-linejoin="round" stroke-linecap="round"/>
</svg>
