<svg width="100.000000" height="100.000000" viewBox="0 0 100 100" fill="none" xmlns="http://www.w3.org/2000/svg" xmlns:xlink="http://www.w3.org/1999/xlink">
	<desc>
			Created with Pixso.
	</desc>
	<defs/>
	<path id="Vector" d="M35.93 84.37C39.95 84.37 43.88 83.18 47.22 80.95C50.56 78.72 53.16 75.54 54.7 71.83C56.24 68.12 56.64 64.03 55.85 60.09C55.07 56.16 53.14 52.54 50.3 49.69C47.46 46.85 43.84 44.92 39.9 44.14C35.96 43.35 31.87 43.75 28.16 45.29C24.45 46.83 21.28 49.43 19.04 52.77C16.81 56.11 15.62 60.04 15.62 64.06C15.62 78.12 7.81 84.37 7.81 84.37L35.93 84.37Z" stroke="#FFFFFF" stroke-opacity="1.000000" stroke-width="3.000000" stroke-linejoin="round"/>
	<path id="Vector" d="M43.9 45.39C51.4 35.27 70.46 12.1 87.88 12.1C87.88 29.53 64.72 48.59 54.6 56.09" stroke="#FFFFFF" stroke-opacity="1.000000" stroke-width="3.000000" stroke-linejoin="round" stroke-linecap="round"/>
	<path id="Vector" d="M51.95 35.39C57.24 38.37 61.62 42.75 64.6 48.04" stroke="#FFFFFF" stroke-opacity="1.000000" stroke-width="3.000000" stroke-linejoin="round" stroke-linecap="round"/>
</svg>
