<svg width="100.000000" height="100.000000" viewBox="0 0 100 100" fill="none" xmlns="http://www.w3.org/2000/svg" xmlns:xlink="http://www.w3.org/1999/xlink">
	<desc>
			Created with Pixso.
	</desc>
	<defs/>
	<path id="Vector" d="M23.78 14.02C23.85 13.61 24 13.23 24.21 12.88C24.43 12.53 24.71 12.23 25.05 12C25.38 11.76 25.76 11.59 26.16 11.5C26.56 11.41 26.97 11.41 27.38 11.48L48.94 15.27C49.75 15.42 50.48 15.89 50.95 16.57C51.43 17.25 51.62 18.08 51.48 18.9L41.99 72.77C41.34 76.4 39.29 79.62 36.29 81.76C33.29 83.9 29.57 84.78 25.93 84.21C18.16 82.96 12.96 75.35 14.33 67.57L23.78 14.02Z" stroke="#FFFFFF" stroke-opacity="1.000000" stroke-width="3.000000" stroke-linejoin="round"/>
	<path id="Vector" d="M46.21 48.75L74.68 38.39C75.07 38.25 75.48 38.19 75.89 38.2C76.3 38.22 76.71 38.32 77.08 38.49C77.46 38.67 77.79 38.91 78.07 39.22C78.35 39.52 78.57 39.88 78.71 40.27L86.21 60.82C86.48 61.59 86.44 62.45 86.09 63.19C85.74 63.94 85.11 64.52 84.33 64.8L32.92 83.51" stroke="#FFFFFF" stroke-opacity="1.000000" stroke-width="3.000000" stroke-linejoin="round" stroke-linecap="round"/>
	<path id="Vector" d="M85.93 63.47L85.93 81.25C85.93 82.07 85.6 82.87 85.02 83.45C84.43 84.04 83.64 84.37 82.81 84.37L28.12 84.37" stroke="#FFFFFF" stroke-opacity="1.000000" stroke-width="3.000000" stroke-linejoin="round" stroke-linecap="round"/>
	<path id="Vector" d="M32.81 70.31C32.81 72.9 30.71 75 28.12 75C25.53 75 23.43 72.9 23.43 70.31C23.43 67.72 25.53 65.62 28.12 65.62C30.71 65.62 32.81 67.72 32.81 70.31Z" fill="#FFFFFF" fill-opacity="1.000000" fill-rule="evenodd"/>
</svg>
