<svg width="100.000000" height="100.000000" viewBox="0 0 100 100" fill="none" xmlns="http://www.w3.org/2000/svg" xmlns:xlink="http://www.w3.org/1999/xlink">
	<desc>
			Created with Pixso.
	</desc>
	<defs/>
	<path id="Vector" d="M59.37 23.43C62.69 23.43 65.86 24.75 68.21 27.09C70.55 29.44 71.87 32.62 71.87 35.93L71.87 73.43C71.87 74.26 71.54 75.06 70.96 75.64C70.37 76.23 69.57 76.56 68.75 76.56L18.75 76.56C15.43 76.56 12.25 75.24 9.91 72.9C7.56 70.55 6.25 67.37 6.25 64.06L6.25 26.56C6.25 25.73 6.57 24.93 7.16 24.35C7.75 23.76 8.54 23.43 9.37 23.43L59.37 23.43Z" stroke="#FFFFFF" stroke-opacity="1.000000" stroke-width="3.000000" stroke-linejoin="round"/>
	<path id="Vector" d="M71.87 43.75L93.75 31.25L93.75 68.75L71.87 56.25" stroke="#FFFFFF" stroke-opacity="1.000000" stroke-width="3.000000" stroke-linejoin="round" stroke-linecap="round"/>
</svg>
